<?xml version="1.0" encoding="UTF-8" standalone="no"?>
<!-- Created with Inkscape (http://www.inkscape.org/) -->

<svg
   xmlns:dc="http://purl.org/dc/elements/1.1/"
   xmlns:cc="http://creativecommons.org/ns#"
   xmlns:rdf="http://www.w3.org/1999/02/22-rdf-syntax-ns#"
   xmlns:svg="http://www.w3.org/2000/svg"
   xmlns="http://www.w3.org/2000/svg"
   xmlns:sodipodi="http://sodipodi.sourceforge.net/DTD/sodipodi-0.dtd"
   xmlns:inkscape="http://www.inkscape.org/namespaces/inkscape"
   width="320"
   height="80"
   id="svg2"
   version="1.1"
   inkscape:version="0.48.4 r9939"
   sodipodi:docname="logo.svg"
   inkscape:export-filename="/home/neil/Documents/PLT/code/nonplussed/logo.png"
   inkscape:export-xdpi="180"
   inkscape:export-ydpi="180">
  <defs
     id="defs4" />
  <sodipodi:namedview
     id="base"
     pagecolor="#ffffff"
     bordercolor="#666666"
     borderopacity="1.0"
     inkscape:pageopacity="0.0"
     inkscape:pageshadow="2"
     inkscape:zoom="2.8"
     inkscape:cx="148.8398"
     inkscape:cy="11.432999"
     inkscape:document-units="px"
     inkscape:current-layer="layer1"
     showgrid="false"
     inkscape:window-width="1871"
     inkscape:window-height="1056"
     inkscape:window-x="49"
     inkscape:window-y="24"
     inkscape:window-maximized="1" />
  <metadata
     id="metadata7">
    <rdf:RDF>
      <cc:Work
         rdf:about="">
        <dc:format>image/svg+xml</dc:format>
        <dc:type
           rdf:resource="http://purl.org/dc/dcmitype/StillImage" />
        <dc:title></dc:title>
      </cc:Work>
    </rdf:RDF>
  </metadata>
  <g
     inkscape:label="Layer 1"
     inkscape:groupmode="layer"
     id="layer1"
     transform="translate(0,-972.36218)">
    <path
       inkscape:connector-curvature="0"
       id="path3091"
       style="font-size:40px;font-style:oblique;font-variant:normal;font-weight:bold;font-stretch:normal;line-height:125%;letter-spacing:0px;word-spacing:0px;fill:#000000;fill-opacity:1;stroke:#930300;stroke-width:6;stroke-linejoin:miter;stroke-miterlimit:4;stroke-opacity:1;stroke-dasharray:none;font-family:FreeSans;-inkscape-font-specification:FreeSans Bold Oblique"
       d="m 79.373703,986.32333 -11.499065,44.25597 -10.066878,0 -13.059732,-31.73933 -7.959118,31.66203 -9.658764,0 10.951976,-44.16364 10.202916,0 13.059734,31.25384 8.37017,-31.26887 9.658761,0"
       sodipodi:nodetypes="ccccccccccc" />
    <path
       inkscape:connector-curvature="0"
       id="path3093"
       style="font-size:40px;font-style:oblique;font-variant:normal;font-weight:bold;font-stretch:normal;line-height:125%;letter-spacing:0px;word-spacing:0px;fill:#000000;fill-opacity:1;stroke:#930300;stroke-width:6;stroke-linejoin:miter;stroke-miterlimit:4;stroke-opacity:1;stroke-dasharray:none;font-family:FreeSans;-inkscape-font-specification:FreeSans Bold Oblique"
       d="m 80.521056,1019.302 c -4e-6,-6.271 2.06325,-11.5913 6.189767,-15.9608 4.17184,-4.40983 9.613394,-6.61482 16.324657,-6.61485 4.67065,3e-5 8.34369,1.09241 11.01915,3.27715 2.6754,2.1442 4.01311,5.0977 4.01316,8.8603 -5e-5,6.3924 -2.10865,11.7531 -6.32582,16.0821 -4.21723,4.329 -9.70412,6.4935 -16.460683,6.4935 -4.489314,0 -8.071664,-1.0923 -10.747083,-3.2771 -2.675438,-2.2252 -4.013152,-5.1786 -4.013148,-8.8603 m 16.460711,5.3404 c 2.13125,10e-5 3.990433,-0.5461 5.577583,-1.6385 1.58709,-1.1328 2.76609,-2.5084 3.53701,-4.1267 0.77086,-1.6588 1.33769,-3.1962 1.70049,-4.6123 0.36274,-1.416 0.54412,-2.6297 0.54416,-3.6412 -4e-5,-2.1443 -0.61221,-3.8637 -1.83653,-5.1584 -1.22438,-1.2946 -2.87952,-1.942 -4.96542,-1.942 -3.083563,0 -5.736323,1.3958 -7.958273,4.1874 -2.22198,2.7512 -3.332964,6.0485 -3.332954,9.892 -1e-5,2.1443 0.61217,3.8638 1.836534,5.1584 1.22433,1.2543 2.85679,1.8814 4.8974,1.8813" />
    <path
       inkscape:connector-curvature="0"
       id="path3095"
       style="font-size:40px;font-style:oblique;font-variant:normal;font-weight:bold;font-stretch:normal;line-height:125%;letter-spacing:0px;word-spacing:0px;fill:#000000;fill-opacity:1;stroke:#930300;stroke-width:6;stroke-linejoin:miter;stroke-miterlimit:4;stroke-opacity:1;stroke-dasharray:none;font-family:FreeSans;-inkscape-font-specification:FreeSans Bold Oblique"
       d="m 130.43314,997.45111 9.52273,0 -1.22436,4.97639 c 1.81382,-1.942 3.69571,-3.33783 5.64561,-4.18746 1.94987,-0.89004 4.19451,-1.33509 6.73393,-1.33512 3.03816,3e-5 5.46419,0.72828 7.27809,2.18475 1.81381,1.45653 2.72072,3.39853 2.72077,5.82593 -5e-5,1.0924 -0.13607,2.205 -0.40811,3.3378 l -4.93996,21.9884 -9.52273,0 4.25976,-19.0147 c 0.27205,-1.3351 0.40809,-2.3263 0.40813,-2.9737 -4e-5,-3.0343 -1.67785,-4.5515 -5.03344,-4.5515 -2.26734,0 -4.23991,0.7283 -5.91769,2.1847 -1.6325,1.4161 -2.76615,3.3783 -3.40098,5.8867 l -4.42126,18.4489 -9.52273,0 7.82224,-32.77109"
       sodipodi:nodetypes="cccccccccccccccccc" />
    <path
       inkscape:connector-curvature="0"
       id="path3101"
       style="font-size:40px;font-style:oblique;font-variant:normal;font-weight:bold;font-stretch:normal;line-height:125%;letter-spacing:0px;word-spacing:0px;fill:#000000;fill-opacity:1;stroke:#68ab00;stroke-width:6;stroke-linejoin:miter;stroke-miterlimit:4;stroke-opacity:1;stroke-dasharray:none;font-family:FreeSans;-inkscape-font-specification:FreeSans Bold Oblique"
       d="m 240.09583,1023.5662 c 2.08591,0 3.92245,-0.3439 5.50957,-1.0317 1.63244,-0.6877 2.87947,-1.5171 3.74107,-2.4881 0.9069,-0.971 1.65512,-2.0634 2.24464,-3.2771 0.58947,-1.2138 0.97493,-2.2657 1.15633,-3.1558 0.18136,-0.89 0.27204,-1.6587 0.27208,-2.3061 -4e-5,-3.7221 -2.38069,-5.5832 -7.14204,-5.5832 -1.81388,0 -3.46901,0.3439 -4.96542,1.0317 -1.49643,0.6878 -2.67544,1.5374 -3.53701,2.5488 -0.86159,1.0115 -1.58713,2.1241 -2.17661,3.3378 -0.58952,1.2138 -0.99764,2.3061 -1.22436,3.2771 -0.18139,0.9306 -0.27208,1.7398 -0.27208,2.4275 0,3.4794 2.13127,5.2191 6.39383,5.2191 m -16.46071,-2.913 c 0,-2.0633 0.40812,-4.2076 1.22436,-6.4328 0.77088,-2.2252 1.88187,-4.3695 3.33294,-6.4329 1.49644,-2.0633 3.49166,-3.8637 5.98573,-5.4011 2.53938,-1.5374 5.37351,-2.54878 8.50242,-3.03432 l -18.97305,-11.72938 1.83652,-6.1901 47.21036,0 -2.10859,6.85766 -31.29381,0 16.3883,9.96937 c 0.0906,0.0405 0.38541,0.26304 0.88425,0.66754 0.49876,0.36421 0.86155,0.64745 1.08831,0.84975 0.2267,0.2023 0.58947,0.54618 1.08832,1.03158 0.54412,0.4451 0.95224,0.8497 1.22435,1.2138 0.31739,0.3641 0.68016,0.8496 1.08831,1.4564 0.40807,0.5665 0.70283,1.1329 0.88426,1.6993 0.22668,0.526 0.40807,1.1733 0.54414,1.942 0.18134,0.7283 0.27204,1.4767 0.27208,2.2454 -4e-5,1.0519 -0.13605,2.2252 -0.40811,3.5199 -0.27212,1.2947 -0.72558,2.8118 -1.36038,4.5515 -0.58955,1.6993 -1.51914,3.3176 -2.78881,4.855 -1.22438,1.5374 -2.72081,2.9737 -4.48928,4.3088 -1.72319,1.3351 -3.96783,2.4072 -6.73393,3.2164 -2.76615,0.8092 -5.84969,1.2138 -9.25063,1.2138 -2.81149,0 -5.21485,-0.3237 -7.21008,-0.971 -1.99522,-0.6878 -3.46898,-1.5981 -4.42125,-2.731 -0.90693,-1.1328 -1.54178,-2.2252 -1.90455,-3.2771 -0.40811,-1.0923 -0.61218,-2.2252 -0.61218,-3.3985"
       sodipodi:nodetypes="ccccccccsscsccccccccccccccccccccccccsscccc" />
    <path
       inkscape:connector-curvature="0"
       id="path3084"
       style="font-size:40px;font-style:normal;font-variant:normal;font-weight:bold;font-stretch:normal;line-height:125%;letter-spacing:0px;word-spacing:0px;fill:#000000;fill-opacity:1;stroke:#6868e1;stroke-width:6;stroke-linejoin:miter;stroke-miterlimit:4;stroke-opacity:1;stroke-dasharray:none;font-family:FreeSans;-inkscape-font-specification:FreeSans Bold"
       d="m 204.43578,1010.5969 0,7.2217 -10.76481,0 0,11.0451 -7.03854,0 0,-11.0451 -10.76482,0 0,-7.2217 10.76482,0 0,-11.04508 7.03854,0 0,11.04508 10.76481,0" />
    <path
       inkscape:connector-curvature="0"
       id="path3091-2"
       style="font-size:40px;font-style:oblique;font-variant:normal;font-weight:bold;font-stretch:normal;line-height:125%;letter-spacing:0px;word-spacing:0px;fill:#ff1d18;fill-opacity:1;stroke:#000000;stroke-width:0;stroke-linejoin:miter;stroke-miterlimit:4;stroke-opacity:1;stroke-dasharray:none;font-family:FreeSans;-inkscape-font-specification:FreeSans Bold Oblique"
       d="m 79.384288,986.35621 -11.677635,44.16669 -10.066878,0 -13.059732,-31.73933 -8.085387,31.78823 -9.658764,0 11.078245,-44.28984 10.202916,0 13.059734,31.25384 8.54874,-31.17959 9.658761,0"
       sodipodi:nodetypes="ccccccccccc" />
    <path
       inkscape:connector-curvature="0"
       id="path3093-0"
       style="font-size:40px;font-style:oblique;font-variant:normal;font-weight:bold;font-stretch:normal;line-height:125%;letter-spacing:0px;word-spacing:0px;fill:#ff2018;fill-opacity:1;stroke:#000000;stroke-width:0;stroke-linejoin:miter;stroke-miterlimit:4;stroke-opacity:1;stroke-dasharray:none;font-family:FreeSans;-inkscape-font-specification:FreeSans Bold Oblique"
       d="m 80.35307,1019.2456 c -5e-6,-6.271 2.063249,-11.5913 6.189773,-15.9608 4.17184,-4.40983 9.613394,-6.61482 16.324657,-6.61485 4.67064,3e-5 8.34368,1.09241 11.01915,3.27717 2.6754,2.14428 4.01311,5.09768 4.01315,8.86028 -4e-5,6.3924 -2.10864,11.7531 -6.32581,16.0821 -4.21723,4.329 -9.70413,6.4935 -16.460703,6.4935 -4.489304,0 -8.071654,-1.0923 -10.747069,-3.2771 -2.675438,-2.2252 -4.013153,-5.1786 -4.013148,-8.8603 m 16.460717,5.3404 c 2.13125,10e-5 3.990433,-0.5461 5.577583,-1.6385 1.58709,-1.1328 2.76609,-2.5084 3.53701,-4.1267 0.77085,-1.6588 1.33768,-3.1962 1.70048,-4.6123 0.36274,-1.416 0.54412,-2.6297 0.54416,-3.6412 -4e-5,-2.1443 -0.61221,-3.8637 -1.83653,-5.1584 -1.22437,-1.2946 -2.87951,-1.942 -4.96541,-1.942 -3.083573,0 -5.736323,1.3958 -7.958273,4.1874 -2.22198,2.7512 -3.332964,6.0485 -3.332954,9.892 -1e-5,2.1443 0.61216,3.8638 1.836534,5.1584 1.22432,1.2543 2.85679,1.8814 4.8974,1.8813" />
    <path
       inkscape:connector-curvature="0"
       id="path3095-7"
       style="font-size:40px;font-style:oblique;font-variant:normal;font-weight:bold;font-stretch:normal;line-height:125%;letter-spacing:0px;word-spacing:0px;fill:#ff2018;fill-opacity:1;stroke:#000000;stroke-width:0;stroke-linejoin:miter;stroke-miterlimit:4;stroke-opacity:1;stroke-dasharray:none;font-family:FreeSans;-inkscape-font-specification:FreeSans Bold Oblique"
       d="m 130.26515,997.39471 9.52274,0 -1.22436,4.97649 c 1.81382,-1.942 3.69571,-3.33793 5.64561,-4.18756 1.94986,-0.89004 4.1945,-1.33509 6.73392,-1.33512 3.03816,3e-5 5.46419,0.72828 7.27809,2.18475 1.81381,1.45663 2.72072,3.39863 2.72077,5.82593 -5e-5,1.0924 -0.13607,2.205 -0.40811,3.3378 l -4.93996,21.9884 -9.52272,0 4.25975,-19.0147 c 0.27204,-1.3351 0.40809,-2.3263 0.40812,-2.9737 -3e-5,-3.0343 -1.67785,-4.5515 -5.03343,-4.5515 -2.26733,0 -4.2399,0.7283 -5.91768,2.1847 -1.6325,1.4161 -2.76616,3.3783 -3.40098,5.8867 l -4.42127,18.4489 -9.52272,0 7.82223,-32.77109"
       sodipodi:nodetypes="cccccccccccccccccc" />
    <path
       inkscape:connector-curvature="0"
       id="path3101-3"
       style="font-size:40px;font-style:oblique;font-variant:normal;font-weight:bold;font-stretch:normal;line-height:125%;letter-spacing:0px;word-spacing:0px;fill:#adff2f;fill-opacity:1;stroke:#000000;stroke-width:0;stroke-linejoin:miter;stroke-miterlimit:4;stroke-opacity:1;stroke-dasharray:none;font-family:FreeSans;-inkscape-font-specification:FreeSans Bold Oblique"
       d="m 239.92785,1023.5098 c 2.08591,0 3.92245,-0.3439 5.50957,-1.0317 1.63244,-0.6877 2.87947,-1.5171 3.74107,-2.4881 0.9069,-0.971 1.65512,-2.0634 2.24464,-3.2771 0.58947,-1.2138 0.97493,-2.2657 1.15633,-3.1558 0.18136,-0.89 0.27204,-1.6587 0.27208,-2.3061 -4e-5,-3.7221 -2.38069,-5.5832 -7.14204,-5.5832 -1.81388,0 -3.46901,0.3439 -4.96542,1.0317 -1.49643,0.6878 -2.67544,1.5374 -3.53701,2.5488 -0.86159,1.0115 -1.58713,2.1241 -2.17661,3.3378 -0.58952,1.2138 -0.99764,2.3061 -1.22436,3.2771 -0.18139,0.9306 -0.27208,1.7398 -0.27208,2.4275 0,3.4794 2.13127,5.2191 6.39383,5.2191 m -16.46071,-2.913 c 0,-2.0633 0.40812,-4.2076 1.22436,-6.4328 0.77088,-2.2252 1.88187,-4.3695 3.33294,-6.4329 1.49644,-2.0633 3.49166,-3.8637 5.98573,-5.401 2.53938,-1.5374 5.37351,-2.54888 8.50242,-3.03442 l -18.97305,-11.72938 1.83652,-6.1901 47.21036,0 -2.10859,6.85766 -31.29381,0 16.3883,9.96937 c 0.0906,0.0405 0.38541,0.26301 0.88425,0.66754 0.49876,0.3642 0.86155,0.64745 1.08831,0.84975 0.2267,0.2023 0.58947,0.54618 1.08832,1.03168 0.54412,0.4451 0.95224,0.8496 1.22435,1.2138 0.31739,0.3641 0.68016,0.8496 1.08831,1.4563 0.40807,0.5665 0.70283,1.1329 0.88425,1.6993 0.22669,0.526 0.40808,1.1733 0.54415,1.942 0.18134,0.7283 0.27204,1.4767 0.27208,2.2454 -4e-5,1.0519 -0.13605,2.2252 -0.40811,3.5199 -0.27212,1.2947 -0.72558,2.8118 -1.36038,4.5515 -0.58955,1.6993 -1.51914,3.3176 -2.78881,4.855 -1.22438,1.5374 -2.72081,2.9737 -4.48928,4.3088 -1.72319,1.3351 -3.96783,2.4072 -6.73393,3.2164 -2.76615,0.8092 -5.84969,1.2138 -9.25063,1.2138 -2.81149,0 -5.21485,-0.3237 -7.21008,-0.971 -1.99522,-0.6878 -3.46898,-1.5981 -4.42125,-2.731 -0.90693,-1.1328 -1.54178,-2.2252 -1.90455,-3.2771 -0.40811,-1.0923 -0.61218,-2.2252 -0.61218,-3.3985"
       sodipodi:nodetypes="ccccccccsscsccccccccccccccccccccccccsscccc" />
    <path
       inkscape:connector-curvature="0"
       id="path3084-4"
       style="font-size:40px;font-style:normal;font-variant:normal;font-weight:bold;font-stretch:normal;line-height:125%;letter-spacing:0px;word-spacing:0px;fill:#e6e6fa;fill-opacity:1;stroke:#000000;stroke-width:0;stroke-linejoin:miter;stroke-miterlimit:4;stroke-opacity:1;stroke-dasharray:none;font-family:FreeSans;-inkscape-font-specification:FreeSans Bold"
       d="m 204.2897,1010.5405 0,7.2217 -10.76481,0 0,11.0451 -7.03854,0 0,-11.0451 -10.76482,0 0,-7.2217 10.76482,0 0,-11.04508 7.03854,0 0,11.04508 10.76481,0" />
    <text
       sodipodi:linespacing="125%"
       id="text3785"
       y="957.00354"
       x="655.11127"
       style="font-size:30.49265670999999855px;font-style:normal;font-variant:normal;font-weight:bold;font-stretch:normal;line-height:125%;letter-spacing:0px;word-spacing:0px;fill:#aeff2f;fill-opacity:1;stroke:#69ac00;stroke-width:1.99999996000000002;stroke-miterlimit:4;stroke-opacity:1;stroke-dasharray:none;font-family:DejaVu Sans;-inkscape-font-specification:DejaVu Sans Bold"
       xml:space="preserve"
       transform="matrix(0.9620321,0,-0.37293881,1.0394664,0,0)"><tspan
         y="957.00354"
         x="655.11127"
         id="tspan3787"
         sodipodi:role="line"
         style="stroke:#69ac00;stroke-width:1.99999996000000002;stroke-miterlimit:4;stroke-opacity:1;stroke-dasharray:none;fill:#aeff2f;fill-opacity:1">=</tspan></text>
  </g>
</svg>
